<svg xmlns="http://www.w3.org/2000/svg" width="640" height="400" viewBox="0 0 640 400" fill="none">
  <rect width="640" height="400" fill="#F7F4EF"/>
  <rect width="640" height="48" fill="#2F2A24"/>
  <rect x="28" y="18" width="72" height="12" rx="3" fill="#E8C97A"/>
  <rect x="112" y="18" width="90" height="12" rx="3" fill="#D8D0C4"/>
  <rect x="48" y="80" width="180" height="240" rx="10" fill="#3D4F4A"/>
  <rect x="64" y="108" width="148" height="18" rx="3" fill="#E8C97A"/>
  <rect x="64" y="140" width="120" height="10" rx="3" fill="#C9D8D2"/>
  <rect x="64" y="160" width="132" height="10" rx="3" fill="#C9D8D2"/>
  <rect x="64" y="190" width="100" height="8" rx="3" fill="#8FA59E"/>
  <rect x="260" y="92" width="300" height="24" rx="4" fill="#2F2A24"/>
  <rect x="260" y="132" width="220" height="12" rx="3" fill="#8A7D6A"/>
  <rect x="260" y="164" width="300" height="10" rx="3" fill="#D5CFC4"/>
  <rect x="260" y="184" width="280" height="10" rx="3" fill="#D5CFC4"/>
  <rect x="260" y="204" width="260" height="10" rx="3" fill="#D5CFC4"/>
  <rect x="260" y="240" width="88" height="28" rx="14" fill="#2F2A24"/>
  <text x="278" y="259" fill="#F4E7B4" font-family="Helvetica, Arial, sans-serif" font-size="14">8.4</text>
  <text x="48" y="360" fill="#6B6256" font-family="Helvetica, Arial, sans-serif" font-size="18">Douban · First edition</text>
</svg>
