<svg xmlns="http://www.w3.org/2000/svg" width="640" height="400" viewBox="0 0 640 400" fill="none">
  <rect width="640" height="400" fill="#F4F1EC"/>
  <rect width="640" height="52" fill="#1F3A3A"/>
  <circle cx="34" cy="26" r="8" fill="#7BA8A8"/>
  <rect x="52" y="20" width="120" height="12" rx="3" fill="#D8E6E4" opacity="0.85"/>
  <rect x="40" y="84" width="160" height="200" rx="12" fill="#E7EEEA"/>
  <circle cx="120" cy="150" r="42" fill="#C5D8D0"/>
  <rect x="78" y="210" width="84" height="10" rx="3" fill="#6F8F86"/>
  <rect x="68" y="230" width="104" height="8" rx="3" fill="#A7BEB6"/>
  <rect x="68" y="248" width="104" height="8" rx="3" fill="#A7BEB6"/>
  <rect x="228" y="90" width="360" height="22" rx="4" fill="#243B3B"/>
  <rect x="228" y="128" width="280" height="12" rx="3" fill="#8AA09A"/>
  <rect x="228" y="156" width="340" height="10" rx="3" fill="#C9D5D1"/>
  <rect x="228" y="176" width="320" height="10" rx="3" fill="#C9D5D1"/>
  <rect x="228" y="196" width="300" height="10" rx="3" fill="#C9D5D1"/>
  <rect x="228" y="230" width="160" height="28" rx="8" fill="#7BA8A8"/>
  <text x="40" y="360" fill="#5C736C" font-family="Helvetica, Arial, sans-serif" font-size="18">SUSTech School of Design</text>
</svg>
