<svg xmlns="http://www.w3.org/2000/svg" width="640" height="400" viewBox="0 0 640 400" fill="none">
  <rect width="640" height="400" fill="#F6F3EE"/>
  <rect width="640" height="52" fill="#2C3E3A"/>
  <circle cx="34" cy="26" r="8" fill="#95B890"/>
  <rect x="52" y="20" width="140" height="12" rx="3" fill="#DDE8DF" opacity="0.9"/>
  <rect x="40" y="84" width="160" height="200" rx="12" fill="#E8EFE6"/>
  <circle cx="120" cy="150" r="42" fill="#C8D8C4"/>
  <rect x="78" y="210" width="84" height="10" rx="3" fill="#6F8A68"/>
  <rect x="68" y="230" width="104" height="8" rx="3" fill="#A7BBA2"/>
  <rect x="68" y="248" width="104" height="8" rx="3" fill="#A7BBA2"/>
  <rect x="228" y="90" width="340" height="22" rx="4" fill="#2C3E3A"/>
  <rect x="228" y="128" width="260" height="12" rx="3" fill="#7F9778"/>
  <rect x="228" y="156" width="340" height="10" rx="3" fill="#CDD8C9"/>
  <rect x="228" y="176" width="320" height="10" rx="3" fill="#CDD8C9"/>
  <rect x="228" y="196" width="300" height="10" rx="3" fill="#CDD8C9"/>
  <rect x="228" y="230" width="150" height="28" rx="8" fill="#95B890"/>
  <text x="40" y="360" fill="#61745F" font-family="Helvetica, Arial, sans-serif" font-size="18">SUSTech School of Design</text>
</svg>
